<?xml version="1.0" standalone="no"?><!DOCTYPE svg PUBLIC "-//W3C//DTD SVG 1.1//EN" "http://www.w3.org/Graphics/SVG/1.1/DTD/svg11.dtd"><svg t="1772543747853" class="icon" viewBox="0 0 1024 1024" version="1.1" xmlns="http://www.w3.org/2000/svg" p-id="15540" xmlns:xlink="http://www.w3.org/1999/xlink" width="200" height="200"><path d="M979.382857 883.273143l-7.241143-9.435429a151.698286 151.698286 0 0 0-23.990857-30.646857c-7.168-7.094857-23.990857-16.530286-26.331428-25.965714 7.168 0 11.922286 0 16.749714-2.340572 9.581714-2.340571 16.822857 0 26.331428-2.340571 4.827429 0 7.314286-2.413714 12.068572-2.413714v-2.340572c-4.827429-4.681143-7.241143-11.776-11.995429-16.530285a288.402286 288.402286 0 0 0-38.4-37.741715c-7.168-7.094857-16.822857-11.776-23.990857-16.530285-2.413714-2.340571-7.168-2.340571-9.581714-7.021715-2.413714-7.094857-7.168-14.189714-7.168-21.211428-4.827429-16.603429-12.068571-33.060571-16.822857-49.590857a171.593143 171.593143 0 0 0-9.581715-33.060572 252.635429 252.635429 0 0 0-88.722285-110.884571 74.898286 74.898286 0 0 0-31.232-14.189715c-7.168 0-11.995429-2.340571-19.163429-2.340571-4.827429-2.340571-7.241143-7.094857-9.581714-9.435429a134.070857 134.070857 0 0 0-40.813714-21.211428c-9.581714-2.340571-19.163429 2.340571-21.577143 11.776-9.581714 16.530286 7.168 35.401143 11.995428 44.836571 4.827429 7.094857 7.168 14.189714 9.581715 21.211429 2.413714 4.754286 2.413714 9.508571 2.413714 14.189714 2.413714 11.776 4.827429 25.965714 9.581714 37.741714 2.413714 7.094857 4.827429 11.776 7.168 16.530286a17.773714 17.773714 0 0 1 4.827429 9.435429c-2.413714 7.094857-7.168 11.776-7.168 18.870857-11.995429 28.306286-11.995429 61.366857-2.413715 92.013714 2.413714 7.094857 11.995429 23.625143 23.990858 18.870857 11.995429-4.681143 11.995429-18.870857 16.822857-32.987428 0-2.413714 2.340571-4.754286 2.340571-7.094857 2.413714 7.094857 4.827429 16.530286 7.241143 23.552 7.168 14.189714 16.822857 28.306286 28.745143 40.155428 4.827429 7.094857 11.995429 11.776 16.822857 18.870857 11.995429 9.435429 4.754286 11.776 93.549714 54.272 0 0 35.913143 16.530286 52.736 23.552 16.822857 7.094857 33.645714 11.849143 50.395429 16.530286 2.340571 0 2.340571-4.681143 2.340571-7.094857zM729.819429 557.714286a101.229714 101.229714 0 0 0-11.995429-28.306286c-7.168-7.094857 2.413714-14.189714 11.995429-11.849143h2.413714c4.754286 0 7.168 4.754286 9.508571 7.094857 0 2.340571 2.486857 2.340571 2.486857 4.754286 2.413714 11.702857-2.413714 25.892571-14.409142 28.306286zM22.308571 267.117714c0 35.474286 43.373714 69.412571 120.612572 94.500572 77.238857 25.014857 181.979429 39.058286 291.181714 39.058285 109.202286 0 214.016-14.043429 291.181714-39.058285 77.238857-25.088 120.685714-59.026286 120.685715-94.500572 0-35.401143-43.446857-69.412571-120.685715-94.427428-77.165714-25.014857-181.979429-39.131429-291.108571-39.131429-109.275429 0-214.016 14.116571-291.254857 39.131429s-120.685714 59.026286-120.685714 94.427428zM715.922286 827.172571h-6.948572c-16.384 0-58.441143-7.094857-84.114285-61.001142v-4.681143a176.64 176.64 0 0 1-11.702858-60.928c-53.686857 9.362286-116.736 14.043429-182.125714 14.043428-179.858286 0-331.702857-37.522286-385.389714-89.088-9.362286-7.021714-20.992-2.340571-20.992 9.362286v124.269714c0 72.704 182.125714 131.291429 406.381714 131.291429 121.417143 0 231.131429-16.384 303.542857-44.617143-6.948571-4.608-11.629714-11.702857-18.651428-18.651429zM431.030857 648.996571c70.070857 0 135.460571-4.681143 191.488-16.457142v-2.340572c0-2.340571-2.340571-4.681143-2.340571-7.021714-4.681143-14.043429-7.021714-28.086857-11.702857-44.544 0-2.340571-2.267429-7.021714-2.267429-9.362286s-2.340571-2.340571-2.340571-4.681143v-4.681143l-2.340572-2.340571C594.505143 543.451429 571.172571 506.002286 585.142857 461.458286c-49.005714 7.021714-100.425143 9.362286-156.525714 9.362285-179.785143 0-331.629714-37.522286-385.316572-89.088-9.362286-7.021714-20.992-2.340571-20.992 9.362286v126.537143c0 72.704 182.125714 131.364571 408.722286 131.364571z" fill="#1296db" p-id="15541"></path></svg>